<?xml version="1.0" encoding="utf-8"?>
<!-- Generator: Adobe Illustrator 24.0.3, SVG Export Plug-In . SVG Version: 6.00 Build 0)  -->
<svg version="1.1" id="Layer_1" xmlns="http://www.w3.org/2000/svg" xmlns:xlink="http://www.w3.org/1999/xlink" x="0px" y="0px" width="500px" height="200px" viewBox="0 0 500 200" xml:space="preserve">
<style type="text/css">
	.st0{fill:#FFFFFF;}
</style>
<g>
	<rect x="50.3" y="142.1" class="st0" width="60.7" height="5.2"/>
	<rect x="440.3" y="142.1" class="st0" width="59.7" height="5.2"/>
	<path class="st0" d="M15.5,112.5c0,5.3,3.3,7.3,8,7.3c3.8,0,6.5-1.3,6.5-4.7c0-3.8-3.9-4.2-13.3-7.4c-8.2-2.8-15.4-5-15.4-14.6
		c0-10.3,8.6-15.2,22-15.2c14.5,0,21.5,7.3,21.5,16.9H29.2c0-4.1-2.2-6.5-6.5-6.5c-3.2,0-5.9,1.4-5.9,4.4c0,3.6,4.2,4.4,12.7,7
		c8.8,2.7,16,5,16,14.7c0,11.8-10.1,16-22.5,16C8.8,130.5,0,124,0,112.4L15.5,112.5z"/>
	<path class="st0" d="M105.3,113.4c-1.7,9.4-10.3,17.1-24.6,17.1c-17.5,0-26.9-11.6-26.9-26.3c0-14.6,9.2-26.3,26.5-26.3
		c15.6,0,25.6,10.5,25.6,22.8c0,2.1,0,4.3-0.5,7.3H69.8c0,6,2.8,11.1,10.9,11.1c5.5,0,8.1-2.5,9.2-5.7L105.3,113.4L105.3,113.4z
		 M69.8,99.3h20.7c0-6.4-4.2-10.2-10.2-10.2C74.2,89.1,69.8,92.6,69.8,99.3z"/>
	<path class="st0" d="M117.7,129.1V79.3h15.8v7.2c2.8-5.4,8.6-8.5,16.3-8.5c6.4,0,11.3,2.2,14,5.7c3.1,3.8,3.9,8.7,3.9,15.8v29.6
		H152v-25.5c0-7.1-2.2-12.1-8.8-12.1c-6.4,0-9.6,5-9.6,12.6v25H117.7z"/>
	<path class="st0" d="M176.5,79.3h7.9V64.5H200v14.8h11.4v11.8H200v17.8c0,7.4,2.9,8.5,6.8,8.5c2,0,4.2-0.1,5.7-0.3v12.1
		c-2.4,0.4-5.9,0.8-10.5,0.8c-7.4,0-17.7-0.9-17.7-17.6V91.1h-7.9L176.5,79.3L176.5,79.3z"/>
	<path class="st0" d="M231.7,52.7c5.8,0,10.2,4.5,10.2,10c0,5.5-4.4,10-10.2,10c-5.7,0-10.1-4.6-10.1-10
		C221.5,57.2,226,52.7,231.7,52.7z M223.8,79.3h15.8v49.8h-15.8V79.3z"/>
	<path class="st0" d="M292.4,79.3h15.8v49.8h-15.8v-7c-2.4,4.6-8.8,8.3-15.2,8.3c-14.4,0-24.3-11.3-24.3-26.2
		c0-14.9,9.9-26.2,24.3-26.2c6.4,0,12.8,3.8,15.2,8.4V79.3z M292.4,104.2c0-6.8-4.7-12.7-11.9-12.7s-11.9,5.9-11.9,12.7
		c0,6.9,4.7,12.7,11.9,12.7S292.4,111.1,292.4,104.2z"/>
	<path class="st0" d="M322.5,129.1V79.3h15.8v7.2c2.8-5.4,8.6-8.5,16.3-8.5c6.4,0,11.3,2.2,14,5.7c3.1,3.8,3.9,8.7,3.9,15.8v29.6
		h-15.8v-25.5c0-7.1-2.2-12.1-8.8-12.1c-6.4,0-9.6,5-9.6,12.6v25H322.5z"/>
	<path class="st0" d="M419.6,98.8c-0.6-4.4-3.4-7.4-9.8-7.4c-7.5,0-11.1,6-11.1,12.8c0,6.9,3.4,12.8,11.7,12.8c5.5,0,8-2.4,9.3-6.6
		h15.8c-1.5,11.3-10,20.1-25.8,20.1c-17.5,0-26.8-12.4-26.8-26.3c0-13.7,9.3-26.3,26.8-26.3c16.9,0,24.7,10.1,25.7,20.9
		C435.4,98.8,419.6,98.8,419.6,98.8z"/>
	<path class="st0" d="M495.4,113.4c-1.7,9.4-10.3,17.1-24.6,17.1c-17.5,0-26.9-11.6-26.9-26.3c0-14.6,9.2-26.3,26.5-26.3
		C486,78,496,88.5,496,100.7c0,2.1,0,4.3-0.5,7.3h-35.7c0,6,2.8,11.1,10.9,11.1c5.5,0,8.1-2.5,9.2-5.7L495.4,113.4L495.4,113.4z
		 M459.8,99.3h20.7c0-6.4-4.2-10.2-10.2-10.2C464.3,89.1,459.8,92.6,459.8,99.3z"/>
</g>
</svg>
